<?xml version="1.0" encoding="iso-8859-1"?>
<!-- Generator: Adobe Illustrator 19.0.0, SVG Export Plug-In . SVG Version: 6.00 Build 0)  -->
<svg version="1.1" id="Capa_1" xmlns="http://www.w3.org/2000/svg" x="0px" y="0px"
     viewBox="0 0 512 512" style="enable-background:new 0 0 512 512;" xml:space="preserve">
<g>
	<g>
		<path d="M166,105.999h-45v150h75c5.259,0,10.313,0.908,15,2.564V150.999C211,126.185,190.814,105.999,166,105.999z"/>
	</g>
</g>
<g>
	<g>
		<path d="M286,105.999c-24.814,0-45,20.186-45,45v107.563c4.688-1.655,9.741-2.563,15-2.563h76v0v-150H286z"/>
	</g>
</g>
<g>
	<g>
		<path d="M407,15.999H46c-24.814,0-46,20.186-46,45v270c0,24.815,21.186,45,46,45h15v45c0,6.064,3.647,11.543,9.258,13.857
			c5.528,2.307,12.017,1.078,16.348-3.252l55.605-55.605H407c24.814,0,45-20.186,45-45v-270C452,36.185,431.814,15.999,407,15.999z
			 M362,270.999c0,8.291-6.709,15-15,15h-91c-8.276,0-15,6.724-15,15c0,8.291-6.709,15-15,15s-15-6.709-15-15
			c0-8.276-6.724-15-15-15h-90c-8.291,0-15-6.709-15-15v-180c0-8.291,6.709-15,15-15h60c24.507,0,46.304,11.821,60,30.044
			c13.696-18.223,35.493-30.044,60-30.044h61c8.291,0,15,6.709,15,15V270.999z"/>
	</g>
</g>
<g>
	<g>
		<path d="M482,78.762v252.237c0,41.353-33.647,75-75,75H154.633l-18.448,18.448c7.958,7.101,18.334,11.552,29.815,11.552h204.789
			l55.605,55.605c4.325,4.325,10.814,5.561,16.348,3.252c5.61-2.314,9.258-7.793,9.258-13.857v-45h15c24.814,0,45-20.186,45-45v-270
			C512,101.469,499.422,84.975,482,78.762z"/>
	</g>
</g>
<g>
</g>
<g>
</g>
<g>
</g>
<g>
</g>
<g>
</g>
<g>
</g>
<g>
</g>
<g>
</g>
<g>
</g>
<g>
</g>
<g>
</g>
<g>
</g>
<g>
</g>
<g>
</g>
<g>
</g>
</svg>
