<?xml version="1.0"?>
<svg xmlns="http://www.w3.org/2000/svg" version="1.1" id="Capa_1" x="0px" y="0px" width="512px" height="512px"
	 viewBox="0 0 400 400" style="enable-background:new 0 0 400 400;" xml:space="preserve"><g><g>
	<g>
		<path d="M199.997,0C89.72,0,0,89.72,0,200s89.72,200,199.997,200C310.279,400,400,310.28,400,200S310.279,0,199.997,0z     M199.997,373.77c-95.811,0-173.766-77.953-173.766-173.77c0-95.817,77.955-173.77,173.766-173.77    c95.824,0,173.772,77.953,173.772,173.77C373.77,295.816,295.82,373.77,199.997,373.77z" data-original="#000000" class="active-path" data-old_color="#000000" fill="#FFFFFF"/>
		<path d="M241.559,109.851c-5.123-5.124-13.43-5.124-18.547,0l-80.875,80.873c-2.46,2.459-3.843,5.796-3.843,9.273    c0,3.478,1.383,6.813,3.843,9.272l80.875,80.875c2.562,2.562,5.918,3.844,9.273,3.844c3.354,0,6.719-1.281,9.272-3.844    c5.123-5.119,5.123-13.426,0-18.545l-71.597-71.604l71.597-71.6C246.682,123.277,246.682,114.971,241.559,109.851z" data-original="#000000" class="active-path" data-old_color="#000000" fill="#FFFFFF"/>
	</g>
</g></g> </svg>
