<svg height="32pt" viewBox="-50 0 511 512" width="32pt" xmlns="http://www.w3.org/2000/svg"><path d="m365.964844 0h-320.464844c-24.8125 0-45 20.1875-45 45v422c0 24.8125 20.1875 45 45 45h320.46875c24.8125 0 45-20.1875 45-45v-422c-.003906-24.8125-20.191406-45-45.003906-45zm-52.699219 350h-137.847656c-8.285157 0-15-6.714844-15-15s6.714843-15 15-15h137.847656c8.285156 0 15 6.714844 15 15s-6.714844 15-15 15zm15 61c0 8.285156-6.714844 15-15 15h-137.847656c-8.285157 0-15-6.714844-15-15s6.714843-15 15-15h137.847656c8.285156 0 15 6.714844 15 15zm-174.8125-257.753906c-.222656-.238282-.4375-.480469-.644531-.730469-5.261719-6.371094-13.210938-16-13.207032-29.65625 0-22.367187 18.199219-40.570313 40.566407-40.570313 9.398437 0 18.367187 3.316407 25.472656 9.039063 7.761719-6.34375 17.773437-9.6875 28.296875-9.015625 21.082031 1.347656 37.742188 18.980469 37.929688 40.144531.121093 13.617188-7.0625 23.328125-13.449219 30.296875-.117188.132813-.238281.265625-.363281.398438l-41.398438 44.015625c-2.835938 3.015625-6.789062 4.722656-10.921875 4.722656-.003906 0-.003906 0-.003906 0-4.136719 0-8.085938-1.707031-10.921875-4.714844zm159.8125 120.753906h-137.847656c-8.285157 0-15-6.714844-15-15s6.714843-15 15-15h137.847656c8.285156 0 15 6.714844 15 15s-6.714844 15-15 15zm-200.609375 85.460938c-13.507812 0-24.457031-10.953126-24.457031-24.460938s10.949219-24.460938 24.457031-24.460938c13.511719 0 24.460938 10.953126 24.460938 24.460938s-10.949219 24.460938-24.460938 24.460938zm24.460938 51.539062c0 13.507812-10.949219 24.460938-24.460938 24.460938-13.507812 0-24.457031-10.953126-24.457031-24.460938s10.949219-24.460938 24.457031-24.460938c13.511719 0 24.460938 10.953126 24.460938 24.460938zm-24.460938-127.539062c-13.507812 0-24.457031-10.953126-24.457031-24.460938s10.949219-24.460938 24.457031-24.460938c13.511719 0 24.460938 10.953126 24.460938 24.460938s-10.949219 24.460938-24.460938 24.460938zm0 0"/></svg>